<?xml version="1.0" encoding="utf-8"?>
<!-- Generator: Adobe Illustrator 18.1.0, SVG Export Plug-In . SVG Version: 6.00 Build 0)  -->
<!DOCTYPE svg PUBLIC "-//W3C//DTD SVG 1.1//EN" "http://www.w3.org/Graphics/SVG/1.1/DTD/svg11.dtd">
<svg version="1.1" id="Layer_1" xmlns="http://www.w3.org/2000/svg" xmlns:xlink="http://www.w3.org/1999/xlink" x="0px" y="0px"
	 viewBox="0 0 600 208" enable-background="new 0 0 600 208" xml:space="preserve">
<g>
	<path fill="#231F20" d="M37.7,117.5v10.2c0,0,0.1,16-14.5,16s-14.5-16-14.5-16V84c0,0-0.1-16,14.5-16s14.5,16,14.5,16v10.2H27.5V84
		c0,0,0.4-5.4-4.1-5.4c-3.8,0-3.8,5.4-3.8,5.4v43.7c0,0,0,5.4,3.8,5.4c4.5,0,4.1-5.4,4.1-5.4v-10.2H37.7z"/>
	<path fill="#231F20" d="M102.2,68.4v58.9c0,0,0.1,16-14.5,16s-14.5-16-14.5-16V68.4h10.9v58.9c0,0-0.2,5.4,3.6,5.4
		c3.8,0,3.6-5.4,3.6-5.4V68.4H102.2z"/>
	<path fill="#231F20" d="M151.5,68c13.1-0.3,15.2,11.4,15.2,19.7l-10.7,1c0-4.9-0.7-10.7-4.3-10.7c-2.8,0.1-3.7,3.1-3.7,7.4
		c0,5,4.3,10.7,8.6,16.8c5,7.6,10.2,14.9,10.2,22.9c0,9.9-3.2,18.7-15.1,18.7c-14,0-15.8-10.6-15.8-21.6l10.7-1
		c0,6.2,0.6,12.6,5.1,12.6c3.2,0,4.4-3.5,4.4-8.2c0-4.9-4.6-10.9-8.8-17.1c-5.1-7.6-10-15.1-10-23.1C137.3,77.2,141.2,68.2,151.5,68
		z"/>
	<path fill="#231F20" d="M198.6,142.9l11.2-74.1h13.3l11.2,74.1h-10.6l-2-15.1h-10.5l-2,15.1H198.6z M217.1,92.9l-0.3-1.9h-0.6
		l-0.3,1.9l-3.1,23.4h7.5L217.1,92.9z"/>
	<path fill="#231F20" d="M296.8,117.5v10.2c0,0,0.1,16-14.5,16c-14.6,0-14.5-16-14.5-16V84c0,0-0.1-16,14.5-16
		c14.6,0,14.5,16,14.5,16v10.2h-10.2V84c0,0,0.4-5.4-4.1-5.4c-3.8,0-3.8,5.4-3.8,5.4v43.7c0,0,0,5.4,3.8,5.4c4.5,0,4.1-5.4,4.1-5.4
		v-10.2H296.8z"/>
	<path fill="#231F20" d="M526.3,117.5v10.2c0,0,0.1,16-14.5,16s-14.5-16-14.5-16V84c0,0-0.1-16,14.5-16s14.5,16,14.5,16v10.2h-10.2
		V84c0,0,0.4-5.4-4.1-5.4c-3.8,0-3.8,5.4-3.8,5.4v43.7c0,0,0,5.4,3.8,5.4c4.5,0,4.1-5.4,4.1-5.4v-10.2H526.3z"/>
	<path fill="#231F20" d="M575.8,143.7c-14.6,0-14.5-16-14.5-16V84c0,0-0.1-16,14.5-16c14.6,0,14.5,16,14.5,16v43.7
		C590.3,127.7,590.4,143.7,575.8,143.7z M575.8,78.5c-3.8,0-3.6,5.4-3.6,5.4v43.7c0,0-0.2,5.4,3.6,5.4c3.8,0,3.6-5.4,3.6-5.4V84
		C579.4,84,579.6,78.5,575.8,78.5z"/>
	<path fill="#231F20" d="M459.4,82.7c-0.3-6.5-5.9-11.5-12.4-11.2c-1.4,0.1-2.8,0.4-4,0.9c0,0,0,0,0,0c-0.1,0-0.1,0.1-0.2,0.1
		c-0.1,0.1-0.2,0.1-0.4,0.2c-6.9,3.4-11,10.4-11.8,20.4c-0.1,1.4-0.2,2.8-0.2,4.1l-23-25.5c5.3-3.4,8.6-9.5,8.3-16.2
		c-0.5-9.7-8.6-17.3-18.2-17.3c0,0-0.6,0-0.9,0c-3,0.2-5.7,1-8.1,2.4c-2.5,1.2-14,9.9-16.2,22c-2.4,13.2,3.7,19.7,3.7,19.7l0.5,0.6
		c-16,6.2-26.9,22-26,40.1c1.1,22.5,20.3,39.7,42.7,38.6c15.1-0.8,27.8-9.6,34.2-22.2c4.7,5.9,4.3,10.4,3.2,12
		c-8.2,11-21.4,19.4-37.7,20.2c-27.6,1.4-51.1-19.9-52.6-47.4c-0.7-14.5,4.9-28.6,15.3-38.7c0.4-0.3,0.4-0.9,0-1.3
		c-0.3-0.4-0.9-0.4-1.3,0c-10.9,10.4-16.7,25-15.9,40.1c0.7,13.8,6.8,26.6,17,35.8c9.6,8.7,21.8,13.4,34.7,13.4c0.9,0,1.8,0,2.7-0.1
		c16.7-0.9,30.2-9.4,38.7-20.6c0,0,0,0,0,0s9.6-12.6,12.7-20c6.1-14.4-4.4-24.8-4.4-24.8l-7.9-8.7c-0.2-5.5,0.3-12.8,3.8-18.5
		c-0.2,1-0.3,2.1-0.3,3.1c0.3,6.5,5.9,11.5,12.4,11.2C454.7,94.8,459.7,89.3,459.4,82.7z M389.3,42.1c2.2-1.2,4.6-2,7.2-2.1
		c0.3,0,0.6,0,0.9,0h0h0c8.8,0,16,6.9,16.4,15.6c0.2,4.4-1.3,8.6-4.2,11.9c-1,1.2-2.2,2.1-3.5,2.9l-15.4-17.1
		C386.5,48.2,386.2,44.3,389.3,42.1z M412.7,140.2c-21.4,0-38.8-17.4-38.8-38.8c0-6.1,1.4-11.8,3.9-16.9l48.3,53.3
		C421.9,139.4,417.4,140.2,412.7,140.2z"/>
</g>
</svg>
